<svg xmlns="http://www.w3.org/2000/svg" xml:space="preserve" fill-rule="evenodd" stroke-linejoin="round" stroke-miterlimit="2" clip-rule="evenodd" viewBox="0 0 100 100">
  <clipPath id="a">
    <path d="M0 14.844h100v70.313H0z"/>
  </clipPath>
  <g clip-path="url(#a)">
    <g fill-rule="nonzero">
      <path fill="red" d="M97.791 25.81c-1.167-4.313-4.536-7.683-8.85-8.85-7.76-2.116-38.992-2.116-38.992-2.116s-31.233.064-38.993 2.18c-4.314 1.167-7.683 4.537-8.85 8.851-2.348 13.788-3.258 34.798.064 48.035 1.167 4.313 4.537 7.683 8.85 8.85 7.76 2.117 38.993 2.117 38.993 2.117s31.232 0 38.992-2.117c4.314-1.167 7.683-4.537 8.851-8.85 2.475-13.808 3.238-34.805-.065-48.1Z"/>
      <path fill="#fff" d="m40.008 64.867 25.91-15.007-25.91-15.007v30.014Z"/>
    </g>
  </g>
</svg>