<svg xmlns="http://www.w3.org/2000/svg" xml:space="preserve" fill-rule="evenodd" stroke-linejoin="round" stroke-miterlimit="2" clip-rule="evenodd" viewBox="0 0 100 100">
  <g fill-rule="nonzero">
    <path fill="#1877f2" d="M92.578 50C92.578 26.485 73.515 7.422 50 7.422 26.485 7.422 7.422 26.485 7.422 50c0 21.252 15.57 38.867 35.925 42.061V62.308H32.536V50h10.811v-9.38c0-10.672 6.357-16.566 16.083-16.566 4.658 0 9.531.832 9.531.832v10.478h-5.369c-5.29 0-6.939 3.282-6.939 6.649V50h11.809l-1.888 12.308h-9.921v29.753C77.008 88.867 92.578 71.252 92.578 50"/>
    <path fill="#fff" d="M66.574 62.308 68.462 50H56.653v-7.987c0-3.367 1.649-6.649 6.939-6.649h5.369V24.886s-4.873-.832-9.531-.832c-9.726 0-16.083 5.894-16.083 16.566V50H32.536v12.308h10.811v29.753c2.168.34 4.39.517 6.653.517s4.485-.177 6.653-.517V62.308h9.921"/>
  </g>
</svg>