<svg xmlns="http://www.w3.org/2000/svg" xml:space="preserve" fill-rule="evenodd" stroke-linejoin="round" stroke-miterlimit="2" clip-rule="evenodd" viewBox="0 0 100 100">
  <clipPath id="a">
    <path d="M7.422 7.422h85.156v85.156H7.422z"/>
  </clipPath>
  <g clip-path="url(#a)">
    <g fill-rule="nonzero">
      <path fill="url(#b)" d="M50.014 7.422c-17.776 0-22.975.018-23.985.102-3.648.303-5.918.878-8.391 2.109-1.906.947-3.409 2.044-4.893 3.583-2.701 2.805-4.338 6.256-4.931 10.358-.288 1.992-.372 2.398-.389 12.57-.007 3.391 0 7.854 0 13.839 0 17.767.019 22.962.105 23.971.294 3.55.851 5.784 2.03 8.228 2.253 4.677 6.556 8.188 11.625 9.499 1.755.452 3.694.701 6.182.818 1.055.046 11.802.079 22.556.079 10.754 0 21.508-.013 22.536-.065 2.881-.136 4.555-.361 6.405-.839 5.102-1.317 9.326-4.776 11.625-9.519 1.156-2.384 1.742-4.703 2.007-8.069.058-.733.082-12.431.082-24.114 0-11.684-.026-23.361-.084-24.095-.268-3.419-.854-5.719-2.048-8.149-.979-1.99-2.066-3.475-3.644-4.995-2.817-2.691-6.262-4.328-10.367-4.921-1.989-.287-2.385-.372-12.563-.39H50.014Z"/>
      <path fill="url(#c)" d="M50.014 7.422c-17.776 0-22.975.018-23.985.102-3.648.303-5.918.878-8.391 2.109-1.906.947-3.409 2.044-4.893 3.583-2.701 2.805-4.338 6.256-4.931 10.358-.288 1.992-.372 2.398-.389 12.57-.007 3.391 0 7.854 0 13.839 0 17.767.019 22.962.105 23.971.294 3.55.851 5.784 2.03 8.228 2.253 4.677 6.556 8.188 11.625 9.499 1.755.452 3.694.701 6.182.818 1.055.046 11.802.079 22.556.079 10.754 0 21.508-.013 22.536-.065 2.881-.136 4.555-.361 6.405-.839 5.102-1.317 9.326-4.776 11.625-9.519 1.156-2.384 1.742-4.703 2.007-8.069.058-.733.082-12.431.082-24.114 0-11.684-.026-23.361-.084-24.095-.268-3.419-.854-5.719-2.048-8.149-.979-1.99-2.066-3.475-3.644-4.995-2.817-2.691-6.262-4.328-10.367-4.921-1.989-.287-2.385-.372-12.563-.39H50.014Z"/>
      <path fill="url(#d)" d="M50.014 7.422c-17.776 0-22.975.018-23.985.102-3.648.303-5.918.878-8.391 2.109-1.906.947-3.409 2.044-4.893 3.583-2.701 2.805-4.338 6.256-4.931 10.358-.288 1.992-.372 2.398-.389 12.57-.007 3.391 0 7.854 0 13.839 0 17.767.019 22.962.105 23.971.294 3.55.851 5.784 2.03 8.228 2.253 4.677 6.556 8.188 11.625 9.499 1.755.452 3.694.701 6.182.818 1.055.046 11.802.079 22.556.079 10.754 0 21.508-.013 22.536-.065 2.881-.136 4.555-.361 6.405-.839 5.102-1.317 9.326-4.776 11.625-9.519 1.156-2.384 1.742-4.703 2.007-8.069.058-.733.082-12.431.082-24.114 0-11.684-.026-23.361-.084-24.095-.268-3.419-.854-5.719-2.048-8.149-.979-1.99-2.066-3.475-3.644-4.995-2.817-2.691-6.262-4.328-10.367-4.921-1.989-.287-2.385-.372-12.563-.39H50.014Z"/>
      <path fill="url(#e)" d="M50.014 7.422c-17.776 0-22.975.018-23.985.102-3.648.303-5.918.878-8.391 2.109-1.906.947-3.409 2.044-4.893 3.583-2.701 2.805-4.338 6.256-4.931 10.358-.288 1.992-.372 2.398-.389 12.57-.007 3.391 0 7.854 0 13.839 0 17.767.019 22.962.105 23.971.294 3.55.851 5.784 2.03 8.228 2.253 4.677 6.556 8.188 11.625 9.499 1.755.452 3.694.701 6.182.818 1.055.046 11.802.079 22.556.079 10.754 0 21.508-.013 22.536-.065 2.881-.136 4.555-.361 6.405-.839 5.102-1.317 9.326-4.776 11.625-9.519 1.156-2.384 1.742-4.703 2.007-8.069.058-.733.082-12.431.082-24.114 0-11.684-.026-23.361-.084-24.095-.268-3.419-.854-5.719-2.048-8.149-.979-1.99-2.066-3.475-3.644-4.995-2.817-2.691-6.262-4.328-10.367-4.921-1.989-.287-2.385-.372-12.563-.39H50.014Z"/>
      <path fill="#fff" d="M50.017 18.356c-8.599 0-9.678.038-13.055.191-3.371.154-5.671.688-7.685 1.47-2.082.808-3.848 1.889-5.608 3.648-1.761 1.759-2.843 3.524-3.655 5.604-.784 2.013-1.319 4.312-1.47 7.679-.152 3.375-.191 4.454-.191 13.046 0 8.593.038 9.668.191 13.043.155 3.368.689 5.667 1.471 7.678.809 2.081 1.891 3.846 3.652 5.605 1.759 1.76 3.525 2.843 5.607 3.652 2.014.782 4.315 1.315 7.685 1.469 3.378.154 4.456.192 13.054.192 8.6 0 9.676-.038 13.053-.192 3.37-.154 5.674-.687 7.688-1.469 2.082-.809 3.846-1.892 5.605-3.652 1.761-1.759 2.843-3.524 3.654-5.604.779-2.012 1.313-4.312 1.471-7.679.152-3.375.192-4.45.192-13.043 0-8.592-.04-9.67-.192-13.045-.158-3.368-.692-5.667-1.471-7.679-.811-2.081-1.893-3.846-3.654-5.605-1.761-1.76-3.522-2.84-5.607-3.648-2.018-.782-4.32-1.316-7.691-1.47-3.377-.153-4.452-.191-13.054-.191h.01Zm-2.84 5.702c.843-.002 1.784 0 2.84 0 8.454 0 9.456.03 12.794.181 3.087.142 4.763.657 5.879 1.09 1.477.573 2.531 1.259 3.638 2.366 1.108 1.108 1.794 2.162 2.37 3.639.433 1.114.949 2.788 1.09 5.873.152 3.335.185 4.337.185 12.78 0 8.444-.033 9.445-.185 12.781-.141 3.084-.657 4.759-1.09 5.872-.574 1.477-1.262 2.528-2.37 3.635-1.108 1.107-2.16 1.793-3.638 2.366-1.115.435-2.792.949-5.879 1.09-3.337.152-4.34.185-12.794.185s-9.456-.033-12.794-.185c-3.087-.142-4.762-.657-5.879-1.091-1.477-.573-2.533-1.258-3.641-2.366-1.108-1.107-1.794-2.159-2.369-3.636-.434-1.114-.95-2.788-1.091-5.873-.151-3.335-.182-4.337-.182-12.786s.031-9.445.182-12.78c.141-3.085.657-4.759 1.091-5.875.573-1.476 1.261-2.531 2.369-3.638 1.108-1.107 2.164-1.793 3.641-2.368 1.116-.435 2.792-.949 5.879-1.09 2.921-.132 4.053-.172 9.954-.178v.008Zm19.741 5.253c-2.098 0-3.799 1.698-3.799 3.795 0 2.096 1.701 3.797 3.799 3.797s3.799-1.701 3.799-3.797-1.701-3.796-3.799-3.796v.001Zm-16.901 4.436c-8.979 0-16.259 7.275-16.259 16.247 0 8.973 7.28 16.245 16.259 16.245 8.98 0 16.257-7.272 16.257-16.245 0-8.972-7.278-16.247-16.257-16.247Zm0 5.701c5.829 0 10.554 4.722 10.554 10.546 0 5.824-4.725 10.546-10.554 10.546-5.829 0-10.554-4.722-10.554-10.546 0-5.824 4.725-10.546 10.554-10.546Z"/>
    </g>
  </g>
  <defs>
    <radialGradient id="b" cx="0" cy="0" r="1" gradientTransform="matrix(-52.3673 14.7688 -10.6404 -37.7281 89.8284 47.3357)" gradientUnits="userSpaceOnUse">
      <stop offset="0" stop-color="#ff005f"/>
      <stop offset="1" stop-color="#fc01d8"/>
    </radialGradient>
    <radialGradient id="c" cx="0" cy="0" r="1" gradientTransform="matrix(0 -67.9733 72.1183 0 30.0408 99.1369)" gradientUnits="userSpaceOnUse">
      <stop offset="0" stop-color="#fc0"/>
      <stop offset=".12" stop-color="#fc0"/>
      <stop offset=".57" stop-color="#fe4a05"/>
      <stop offset=".69" stop-color="#ff0f3f"/>
      <stop offset="1" stop-color="#fe0657" stop-opacity="0"/>
    </radialGradient>
    <radialGradient id="d" cx="0" cy="0" r="1" gradientTransform="matrix(14.1088 -24.31 31.6488 18.3682 52.1518 91.3772)" gradientUnits="userSpaceOnUse">
      <stop offset="0" stop-color="#fc0"/>
      <stop offset="1" stop-color="#fc0" stop-opacity="0"/>
    </radialGradient>
    <radialGradient id="e" cx="0" cy="0" r="1" gradientTransform="matrix(-51.7924 14.5839 -4.96744 -17.646 18.9757 10.8894)" gradientUnits="userSpaceOnUse">
      <stop offset="0" stop-color="#780cff"/>
      <stop offset="1" stop-color="#820bff" stop-opacity="0"/>
    </radialGradient>
  </defs>
</svg>